<mxfile host="app.diagrams.net" modified="2023-04-07T04:24:33.744Z" agent="Mozilla/5.0 (Windows NT 10.0; Win64; x64) AppleWebKit/537.36 (KHTML, like Gecko) Chrome/111.0.0.0 Safari/537.36" etag="m_BwnLB1omPf7-sCwuHA" version="21.1.5" type="device">
  <diagram id="wFE0QG_FPsp0jaGvCLVb" name="Page-1">
    <mxGraphModel dx="1434" dy="802" grid="1" gridSize="10" guides="1" tooltips="1" connect="1" arrows="1" fold="1" page="1" pageScale="1" pageWidth="850" pageHeight="1100" background="#0FBFFF" math="0" shadow="0">
      <root>
        <mxCell id="0" />
        <mxCell id="1" parent="0" />
        <mxCell id="cPkkYxN_OdXGEcsEkMFF-6" value="&lt;font style=&quot;font-size: 28px;&quot;&gt;&lt;i&gt;Netlify&lt;/i&gt;&lt;/font&gt;" style="rhombus;whiteSpace=wrap;html=1;fillColor=#dae8fc;strokeColor=#6c8ebf;" vertex="1" parent="1">
          <mxGeometry x="235" y="470" width="380" height="120" as="geometry" />
        </mxCell>
        <mxCell id="cPkkYxN_OdXGEcsEkMFF-9" value="&lt;font style=&quot;font-size: 28px;&quot;&gt;&lt;i&gt;Github&lt;/i&gt;&lt;/font&gt;" style="rhombus;whiteSpace=wrap;html=1;fillColor=#dae8fc;strokeColor=#6c8ebf;" vertex="1" parent="1">
          <mxGeometry x="235" y="380" width="380" height="120" as="geometry" />
        </mxCell>
        <mxCell id="cPkkYxN_OdXGEcsEkMFF-8" value="&lt;font style=&quot;font-size: 28px;&quot;&gt;&lt;i&gt;SCSS&lt;/i&gt;&lt;/font&gt;" style="rhombus;whiteSpace=wrap;html=1;fillColor=#dae8fc;strokeColor=#6c8ebf;" vertex="1" parent="1">
          <mxGeometry x="235" y="300" width="380" height="120" as="geometry" />
        </mxCell>
        <mxCell id="cPkkYxN_OdXGEcsEkMFF-5" value="&lt;font style=&quot;font-size: 28px;&quot;&gt;&lt;i&gt;CSS&lt;/i&gt;&lt;/font&gt;" style="rhombus;whiteSpace=wrap;html=1;fillColor=#dae8fc;strokeColor=#6c8ebf;" vertex="1" parent="1">
          <mxGeometry x="235" y="200" width="380" height="120" as="geometry" />
        </mxCell>
        <mxCell id="cPkkYxN_OdXGEcsEkMFF-1" value="&lt;font style=&quot;font-size: 28px;&quot;&gt;&lt;i&gt;HTML&lt;/i&gt;&lt;/font&gt;" style="rhombus;whiteSpace=wrap;html=1;fillColor=#dae8fc;strokeColor=#6c8ebf;" vertex="1" parent="1">
          <mxGeometry x="235" y="120" width="380" height="120" as="geometry" />
        </mxCell>
        <mxCell id="cPkkYxN_OdXGEcsEkMFF-2" value="&lt;font style=&quot;font-size: 20px;&quot;&gt;&lt;b&gt;TECH STACK&lt;/b&gt;&lt;/font&gt;" style="rounded=0;whiteSpace=wrap;html=1;fillColor=#fff2cc;strokeColor=#d6b656;imageAlign=center;" vertex="1" parent="1">
          <mxGeometry x="250" y="40" width="335" height="60" as="geometry" />
        </mxCell>
      </root>
    </mxGraphModel>
  </diagram>
</mxfile>
